<svg id="Layer_1" xmlns="http://www.w3.org/2000/svg" viewBox="0 0 83 63"><style>.st0{stroke-linejoin:round}.st0,.st1{fill:none;stroke:#3b5062;stroke-width:2;stroke-miterlimit:10}.st2{fill:#3b5062}</style><path d="M60 46.3c-5 3-11.2 5.2-18.5 5.2-22.4 0-31.6-15.6-33.7-19.9 2-3.1 8.6-12.7 20-17.5L24 10.2c-13.9 6.6-20.8 19.3-21.2 20-.3.6-.4 1.4-.1 2.1.1.2 9.9 24.2 38.8 24.2 9 0 16.4-2.8 22.2-6.5L60 46.3zm20.3-15.8c-.1-.2-9.9-24.2-38.8-24.2-4.6 0-8.7.7-12.5 1.9l4.1 4.1c2.6-.6 5.4-1 8.4-1 22.4 0 31.6 15.6 33.7 19.9-1.4 2.2-5 7.5-11 12.2l3.6 3.6c8-6.4 12.1-13.9 12.4-14.5.4-.6.4-1.3.1-2z"/><path d="M55.7 34.9c.3-1.1.4-2.3.4-3.5 0-8.1-6.5-14.6-14.6-14.6-1.2 0-2.4.2-3.5.4l17.7 17.7zm-13.3-6.2c-.3.1-.6.1-.9.1-1.4 0-2.6 1.2-2.6 2.6 0 1.9-1.6 3.5-3.5 3.5s-3.5-1.6-3.5-3.5c0-3.6 2-6.7 4.9-8.3l-3.6-3.6c-3.8 2.6-6.3 7-6.3 12 0 8.1 6.5 14.6 14.6 14.6 5 0 9.3-2.5 12-6.3L42.4 28.7z"/><path transform="rotate(-45.001 41.5 31.25)" d="M39-7.3h5v77.1h-5z"/></svg>